<?xml version="1.0" standalone="no"?>
<!DOCTYPE svg PUBLIC "-//W3C//DTD SVG 20010904//EN"
 "http://www.w3.org/TR/2001/REC-SVG-20010904/DTD/svg10.dtd">
<svg version="1.0" xmlns="http://www.w3.org/2000/svg"
 width="1500.000000pt" height="796.000000pt" viewBox="0 0 1500.000000 796.000000"
 preserveAspectRatio="xMidYMid meet">

<g transform="translate(0.000000,796.000000) scale(0.100000,-0.100000)"
fill="#000000" stroke="none">
<path d="M3025 7400 c-834 -92 -1580 -544 -2103 -1273 -620 -864 -830 -2027
-561 -3102 319 -1274 1266 -2238 2416 -2459 355 -68 725 -66 1069 4 1231 252
2211 1342 2448 2722 45 259 51 339 51 673 0 334 -6 409 -51 672 -124 728 -469
1406 -970 1907 -464 463 -1006 742 -1634 841 -122 19 -540 29 -665 15z m630
-1168 c206 -135 354 -226 360 -221 13 13 25 11 22 -3 -1 -6 164 -115 368 -242
203 -127 368 -235 367 -241 -3 -15 -736 -514 -742 -505 -3 4 -164 110 -359
235 -242 156 -363 228 -385 229 -26 2 -87 -36 -381 -237 -192 -131 -354 -244
-360 -251 -5 -7 -16 -11 -23 -8 -20 6 -13 -1005 7 -1017 9 -6 10 -11 2 -15 -8
-5 -11 -149 -11 -496 l0 -488 372 -229 c205 -125 377 -228 383 -228 5 0 15 -5
20 -12 7 -9 108 55 382 243 l372 254 381 -237 c303 -189 378 -239 368 -249 -7
-7 -173 -121 -368 -255 -195 -133 -357 -246 -358 -251 -2 -4 -7 -6 -11 -4 -4
3 -174 -109 -377 -248 -277 -190 -370 -249 -372 -236 -3 19 -723 442 -759 446
-16 2 -747 446 -773 471 -2 2 1 8 9 12 10 7 12 78 7 367 -4 198 -9 417 -12
487 l-5 129 53 -34 c74 -47 78 -50 78 -45 0 3 -36 28 -80 57 -69 46 -78 54
-64 65 15 11 16 55 12 494 -4 405 -7 484 -19 492 -12 8 -11 11 4 20 20 12 20
22 1 770 -5 187 -3 226 8 226 7 0 179 114 380 253 202 140 375 254 385 255 20
2 712 459 727 480 12 17 -26 40 391 -233z"/>
<path d="M11566 5199 c-101 -14 -182 -36 -262 -74 -316 -145 -494 -444 -571
-960 -26 -173 -26 -688 0 -822 69 -363 230 -562 500 -620 104 -22 278 -13 432
22 237 53 473 141 627 233 131 77 127 69 131 267 6 237 50 433 138 606 l28 57
-307 6 c-169 4 -401 11 -517 15 -115 5 -212 6 -215 4 -8 -8 -2 -128 9 -155 8
-22 19 -28 68 -37 135 -26 171 -50 193 -129 44 -164 65 -417 41 -500 -14 -51
-64 -110 -108 -128 -42 -18 -127 -18 -161 0 -127 67 -188 257 -277 871 -43
293 -49 480 -21 629 64 335 270 538 561 553 192 10 415 -79 403 -161 -3 -20
-11 -21 -128 -26 -116 -5 -131 -8 -192 -38 -161 -79 -240 -249 -177 -380 40
-82 166 -161 324 -203 119 -32 332 -32 433 -1 127 40 182 120 182 269 0 184
-65 351 -183 468 -117 117 -268 185 -486 219 -127 21 -371 28 -465 15z"/>
<path d="M8226 5159 c-352 -51 -598 -268 -709 -625 -104 -330 -95 -872 19
-1215 139 -419 442 -602 909 -549 147 17 275 47 344 81 206 101 343 383 340
704 -1 143 -7 145 -70 24 -72 -138 -122 -211 -175 -257 -135 -120 -375 -176
-500 -118 -127 59 -219 255 -297 631 -105 507 -107 777 -6 976 43 86 119 160
194 189 81 30 203 31 297 1 90 -29 217 -114 243 -164 26 -49 21 -51 -114 -66
-183 -21 -280 -83 -348 -228 -90 -188 -10 -309 254 -385 68 -20 101 -23 263
-23 149 0 196 3 242 18 141 43 199 165 178 376 -36 349 -305 584 -725 631
-105 12 -255 11 -339 -1z"/>
<path d="M10558 5155 c-9 -9 -223 -52 -369 -75 -211 -33 -541 -70 -691 -77
-75 -3 -142 -9 -149 -13 -16 -10 3 -68 47 -141 54 -90 59 -93 133 -68 99 34
122 18 152 -101 21 -84 19 -607 -4 -815 -26 -237 -74 -563 -92 -624 -9 -29
-28 -64 -42 -77 -26 -24 -122 -59 -194 -70 -21 -4 -43 -12 -48 -18 -11 -13
-47 -243 -40 -251 3 -2 52 4 109 15 166 32 435 69 569 79 131 9 296 2 540 -24
79 -8 149 -15 157 -15 11 0 14 19 14 88 -1 106 -14 280 -23 288 -3 3 -34 -3
-68 -15 -93 -31 -144 -28 -179 9 -100 108 -129 498 -80 1100 23 271 40 370 85
467 27 59 104 147 150 170 42 22 45 29 45 106 0 60 -6 78 -22 62z"/>
<path d="M13600 5045 c-361 -72 -657 -354 -789 -751 -88 -267 -84 -643 10
-909 124 -352 362 -609 630 -681 82 -22 240 -22 331 0 280 66 526 307 713 699
113 237 206 534 235 754 19 142 9 339 -24 439 -81 250 -286 398 -622 449 -121
18 -393 18 -484 0z m242 -635 c235 -27 442 -150 520 -308 30 -61 33 -74 32
-157 0 -68 -5 -101 -21 -135 -76 -167 -286 -329 -508 -392 -64 -18 -105 -22
-205 -22 -141 0 -210 15 -326 70 -139 66 -233 152 -290 264 -32 64 -44 186
-25 257 48 178 342 384 601 421 90 13 122 13 222 2z"/>
</g>
</svg>
